<svg width="13" height="15" viewBox="0 0 13 15" fill="none" xmlns="http://www.w3.org/2000/svg">
<path d="M7.16662 1.43334V8.11263C7.16625 8.14153 7.15889 8.16991 7.14518 8.19534C7.13146 8.22078 7.1118 8.24252 7.08786 8.25872C7.06392 8.27491 7.03643 8.28507 7.00771 8.28834C6.979 8.2916 6.94992 8.28787 6.92296 8.27746L6.56463 8.13413C6.53124 8.12125 6.50247 8.09867 6.48203 8.06929C6.4616 8.03991 6.45043 8.00508 6.44996 7.9693V1.79167C6.44996 1.69663 6.41221 1.60549 6.34501 1.53829C6.27781 1.47109 6.18667 1.43334 6.09163 1.43334H5.37497C5.34532 1.433 5.31605 1.44002 5.28978 1.45378C5.26351 1.46754 5.24107 1.4876 5.22447 1.51217L5.14564 1.634C5.11198 1.68269 5.067 1.72248 5.01457 1.74994C4.96214 1.7774 4.90383 1.79172 4.84464 1.79167H2.34349C2.28419 1.79235 2.22564 1.7783 2.17311 1.75078C2.12058 1.72326 2.07569 1.68314 2.04249 1.634L1.95649 1.51217C1.93861 1.48545 1.91388 1.46403 1.88488 1.45016C1.85588 1.43629 1.82368 1.43048 1.79166 1.43334H1.07499C0.979958 1.43334 0.888815 1.47109 0.821615 1.53829C0.754415 1.60549 0.716662 1.69663 0.716662 1.79167V11.4666C0.716662 11.5616 0.754415 11.6528 0.821615 11.72C0.888815 11.7872 0.979958 11.8249 1.07499 11.8249H1.86332C1.91133 11.8247 1.95891 11.834 2.00323 11.8525C2.04755 11.871 2.08771 11.8982 2.12132 11.9324L3.13181 12.9573C3.15784 12.9823 3.17568 13.0147 3.183 13.05C3.19031 13.0854 3.18676 13.1222 3.17281 13.1555C3.15886 13.1888 3.13516 13.2172 3.10483 13.2368C3.07449 13.2564 3.03893 13.2664 3.00282 13.2654H0.716662C0.526592 13.2654 0.344306 13.1899 0.209906 13.0555C0.0755052 12.9211 0 12.7388 0 12.5488V1.43334C0 1.24327 0.0755052 1.06098 0.209906 0.92658C0.344306 0.79218 0.526592 0.716675 0.716662 0.716675H6.44996C6.64003 0.716675 6.82232 0.79218 6.95672 0.92658C7.09112 1.06098 7.16662 1.24327 7.16662 1.43334Z" fill="#4640DE"/>
<path d="M12.1834 3.22506C12.1843 3.27238 12.1757 3.31941 12.1581 3.36333C12.1404 3.40724 12.1141 3.44714 12.0806 3.48061C12.0471 3.51408 12.0072 3.54044 11.9633 3.5581C11.9194 3.57576 11.8724 3.58436 11.825 3.58339C11.7319 3.58339 11.6426 3.54639 11.5767 3.48053C11.5109 3.41468 11.4739 3.32536 11.4739 3.23222C11.4748 2.90162 11.4104 2.57409 11.2843 2.26847C11.1582 1.96285 10.973 1.68517 10.7392 1.4514C10.5054 1.21762 10.2278 1.03237 9.92213 0.90629C9.61651 0.78021 9.28898 0.715791 8.95838 0.716737C8.86335 0.716737 8.7722 0.678984 8.705 0.611784C8.6378 0.544584 8.60005 0.453441 8.60005 0.358406C8.59907 0.311081 8.60768 0.264048 8.62534 0.220132C8.643 0.176216 8.66936 0.136324 8.70283 0.102854C8.7363 0.0693832 8.77619 0.0430247 8.82011 0.0253624C8.86402 0.00770016 8.91106 -0.000901403 8.95838 7.4674e-05C9.38216 -0.000870203 9.80195 0.0819015 10.1936 0.243637C10.5853 0.405373 10.9412 0.642887 11.2409 0.942543C11.5405 1.2422 11.7781 1.59809 11.9398 1.98979C12.1015 2.38149 12.1843 2.80128 12.1834 3.22506Z" fill="#4640DE"/>
<path d="M10.7499 3.22511C10.7519 3.27271 10.744 3.32021 10.7267 3.3646C10.7094 3.40899 10.6831 3.44931 10.6494 3.483C10.6157 3.51668 10.5754 3.54301 10.531 3.5603C10.4866 3.57759 10.4391 3.58547 10.3915 3.58344C10.3003 3.58344 10.2128 3.5472 10.1483 3.48268C10.0838 3.41817 10.0475 3.33067 10.0475 3.23944C10.0509 3.18455 10.0509 3.1295 10.0475 3.07461C10.0223 2.83685 9.91585 2.61507 9.74613 2.44666C9.57641 2.27825 9.35382 2.17351 9.11587 2.15011H8.9582C8.91243 2.15107 8.86693 2.14287 8.82436 2.12601C8.78179 2.10915 8.74302 2.08397 8.71032 2.05193C8.67761 2.01989 8.65163 1.98164 8.63389 1.93943C8.61616 1.89722 8.60703 1.8519 8.60704 1.80612C8.603 1.75798 8.60914 1.70953 8.62507 1.66393C8.641 1.61833 8.66635 1.57659 8.69947 1.54143C8.7326 1.50628 8.77276 1.47849 8.81734 1.45989C8.86192 1.44128 8.90991 1.43228 8.9582 1.43345C9.43338 1.43345 9.8891 1.62221 10.2251 1.95822C10.5611 2.29422 10.7499 2.74993 10.7499 3.22511Z" fill="#4640DE"/>
<path d="M8.59991 10.6855V12.1188C8.59934 12.424 8.53845 12.726 8.42075 13.0075C8.24113 13.4039 7.95074 13.74 7.58455 13.9752C7.21836 14.2104 6.79199 14.3348 6.35676 14.3333C6.04845 14.3343 5.74332 14.271 5.46077 14.1477C5.17823 14.0243 4.92445 13.8434 4.7156 13.6166L3.80544 12.599L2.37211 11.1657C2.27679 11.0719 2.21154 10.9518 2.18468 10.8208C2.15783 10.6898 2.17057 10.5537 2.2213 10.43C2.27203 10.3062 2.35844 10.2004 2.46954 10.1259C2.58063 10.0514 2.71137 10.0117 2.84511 10.0118C2.93395 10.0108 3.02212 10.0274 3.10452 10.0606C3.18693 10.0938 3.26195 10.143 3.32528 10.2053L3.84127 10.7285C3.8719 10.7453 3.90678 10.7528 3.9416 10.75C3.98977 10.7481 4.03534 10.7277 4.06875 10.6929C4.10216 10.6582 4.12081 10.6119 4.12077 10.5637V7.23118C4.11749 7.08792 4.16666 6.94839 4.25905 6.83884C4.35144 6.7293 4.48067 6.65729 4.62243 6.63635H4.65827C4.80652 6.63635 4.94871 6.69525 5.05354 6.80008C5.15837 6.90491 5.21726 7.04709 5.21726 7.19535V8.14851C5.21819 8.22008 5.24053 8.28973 5.28141 8.34849C5.32228 8.40724 5.37982 8.45241 5.4466 8.47817L7.68975 9.31667C7.96355 9.42392 8.19774 9.61278 8.36055 9.85764C8.52337 10.1025 8.60693 10.3915 8.59991 10.6855Z" fill="#B4B1FF"/>
</svg>
