<svg width="12" height="12" viewBox="0 0 12 12" fill="none" xmlns="http://www.w3.org/2000/svg">
<path d="M10.7769 1.26562C10.7769 1.07147 10.6195 0.914062 10.4254 0.914062H9.0191C8.82495 0.914062 8.66754 1.07147 8.66754 1.26562V1.299L10.7769 3.16022V1.26562Z" fill="#4640DE"/>
<path d="M11.8107 5.00981L6.23253 0.0879346C6.09966 -0.0292998 5.90023 -0.0293232 5.76734 0.0879346L0.189214 5.00981C0.0436205 5.13827 0.0297455 5.36044 0.158206 5.50603C0.286667 5.65162 0.508831 5.6655 0.654425 5.53704L1.40668 4.87329V11.2968H1.07806C0.883902 11.2968 0.726496 11.4542 0.726496 11.6484C0.726496 11.8425 0.883902 12 1.07806 12H10.9218C11.116 12 11.2734 11.8425 11.2734 11.6484C11.2734 11.4542 11.116 11.2968 10.9218 11.2968H10.5932V4.87326L11.3455 5.53704C11.4123 5.59603 11.4953 5.625 11.5779 5.62497C11.6753 5.62497 11.7722 5.58475 11.8417 5.50601C11.9701 5.36044 11.9562 5.13827 11.8107 5.00981ZM7.71092 8.88328C7.19986 9.41233 6.47262 9.94617 5.99993 9.94617C5.50763 9.94617 4.76864 9.34467 4.28543 8.82958C3.87186 8.38875 3.17803 7.52168 3.17803 6.66778C3.17803 5.75676 3.91922 5.0156 4.83024 5.0156C5.27996 5.0156 5.69595 5.193 5.99996 5.49888C6.30399 5.193 6.71993 5.0156 7.16967 5.0156C8.08069 5.0156 8.82188 5.75676 8.82188 6.66778C8.82185 7.59478 8.12583 8.45376 7.71092 8.88328Z" fill="#B4B1FF"/>
<path d="M7.1695 5.71875C6.8035 5.71875 6.47636 5.92334 6.31579 6.25266C6.25686 6.3735 6.13422 6.45014 5.99978 6.45014C5.86534 6.45014 5.74269 6.37348 5.68377 6.25266C5.5232 5.92334 5.19608 5.71875 4.83006 5.71875C4.30675 5.71875 3.88098 6.14449 3.88098 6.66781C3.88098 7.10391 4.21886 7.7269 4.78478 8.33435C5.33706 8.92713 5.86206 9.23649 6.00079 9.24309C6.14108 9.24087 6.66634 8.95397 7.20957 8.39011C7.78726 7.79051 8.11857 7.16274 8.11857 6.66781C8.11857 6.14449 7.69281 5.71875 7.1695 5.71875Z" fill="#4640DE"/>
</svg>
