<svg width="8" height="16" viewBox="0 0 8 16" fill="none" xmlns="http://www.w3.org/2000/svg">
<path d="M5.5369 4.23619C5.55277 4.37225 5.53347 4.51011 5.48084 4.63659C5.2428 5.23598 5.04745 5.85146 4.89626 6.47842C4.80817 6.20615 4.71208 5.94189 4.60797 5.67762L4.19156 4.6526C4.1347 4.51884 4.11532 4.37212 4.1355 4.22818C4.26295 3.32729 4.49959 2.44526 4.8402 1.60156C5.18183 2.44714 5.41589 3.33227 5.5369 4.23619Z" fill="#B4B1FF"/>
<path d="M7.35444 5.65358C7.07913 6.06766 6.91125 6.54377 6.86595 7.03896L6.75384 8.80872C6.75045 8.85133 6.73403 8.89186 6.70681 8.92481C6.67959 8.95776 6.64289 8.98153 6.60169 8.9929C6.18671 9.10708 5.76378 9.19006 5.33643 9.24115C5.40138 6.8881 6.12857 4.60105 7.43452 2.64258L7.67476 3.59553C7.76218 3.94251 7.77887 4.30355 7.72384 4.65712C7.66881 5.01069 7.54318 5.34957 7.35444 5.65358Z" fill="#B4B1FF"/>
<path d="M3.23055 5.021V5.47746L3.15047 5.67766C2.95702 6.15381 2.7991 6.64364 2.678 7.14312C2.54301 6.08828 2.18837 5.07346 1.63696 4.16415C1.63696 3.9159 1.63696 3.66765 1.63696 3.41941C1.63696 3.3153 1.63696 3.20319 1.63696 3.09909C1.72793 2.38972 1.88339 1.69013 2.10143 1.00901C2.19819 0.666788 2.31313 0.329974 2.44577 0C3.08441 1.59259 3.35276 3.30949 3.23055 5.021Z" fill="#B4B1FF"/>
<path d="M1.965 9.17718C1.58714 9.11109 1.21294 9.02555 0.843884 8.92093C0.801278 8.91754 0.76075 8.90112 0.727799 8.8739C0.694848 8.84668 0.671073 8.80998 0.6597 8.76878L0.355397 7.34336C0.164656 6.41613 0.164656 5.45978 0.355397 4.53256L0.483525 3.88391C1.15705 4.77763 1.60235 5.82217 1.78082 6.92694L1.965 9.17718Z" fill="#B4B1FF"/>
<path d="M4.66318 9.31333C4.40692 9.31333 4.15067 9.31333 3.86238 9.31333C3.5741 9.31333 3.34987 9.31333 3.06158 9.31333C3.10973 8.5649 3.2386 7.82386 3.44597 7.10312C3.55808 6.71874 3.68621 6.34237 3.83035 5.974C3.83035 6.04607 3.88641 6.12615 3.91844 6.19822C4.31796 7.1945 4.56889 8.24408 4.66318 9.31333Z" fill="#B4B1FF"/>
<path d="M7.71466 10.0981L6.99394 15.1271C6.97094 15.2956 6.8949 15.4523 6.77684 15.5747C6.65878 15.6971 6.50483 15.7787 6.33729 15.8078C4.69492 16.0641 3.02272 16.0641 1.38035 15.8078C1.21281 15.7787 1.05886 15.6971 0.940802 15.5747C0.822743 15.4523 0.746704 15.2956 0.723697 15.1271L0.00297881 10.0981C-0.00478379 10.0348 0.00267829 9.97057 0.0247439 9.91075C0.0468095 9.85093 0.0828407 9.79725 0.12984 9.75417C0.176839 9.71109 0.233447 9.67985 0.294953 9.66306C0.35646 9.64627 0.421087 9.64441 0.483458 9.65764C1.59423 9.89458 2.72706 10.0127 3.86282 10.01C4.99591 10.0121 6.12602 9.89401 7.23418 9.65764C7.29655 9.64441 7.36118 9.64627 7.42269 9.66306C7.48419 9.67985 7.5408 9.71109 7.5878 9.75417C7.6348 9.79725 7.67083 9.85093 7.6929 9.91075C7.71496 9.97057 7.72242 10.0348 7.71466 10.0981Z" fill="#4640DE"/>
</svg>
