<svg width="13" height="15" viewBox="0 0 13 15" fill="none" xmlns="http://www.w3.org/2000/svg">
<path d="M5.37042 1.4009H4.7824C4.1395 1.40217 3.51661 1.62463 3.01836 2.03092C2.99631 2.04654 2.97094 2.05685 2.94425 2.06102C2.91755 2.0652 2.89025 2.06314 2.86448 2.05501C2.83872 2.04687 2.81518 2.03288 2.79573 2.01412C2.77628 1.99537 2.76143 1.97237 2.75235 1.94692L2.17834 0.231874C2.16938 0.20537 2.16691 0.177105 2.17113 0.149449C2.17535 0.121793 2.18615 0.0955518 2.2026 0.0729263C2.21906 0.0503008 2.24069 0.03195 2.2657 0.0194124C2.29071 0.00687473 2.31837 0.000515644 2.34634 0.000868407H4.40439C4.54995 0.00194947 4.69155 0.0483789 4.80949 0.133695C4.92743 0.219012 5.01583 0.338972 5.06241 0.476881L5.37042 1.4009Z" fill="#B4B1FF"/>
<path d="M10.424 0.231843L9.857 1.94689C9.84792 1.97234 9.83308 1.99534 9.81362 2.01409C9.79417 2.03285 9.77063 2.04684 9.74487 2.05498C9.7191 2.06311 9.6918 2.06517 9.6651 2.06099C9.63841 2.05681 9.61304 2.04651 9.59099 2.03089C9.09088 1.62308 8.46526 1.40053 7.81995 1.40087H7.23193L7.53994 0.483849C7.58741 0.337653 7.68167 0.211143 7.80819 0.123847C7.9347 0.036552 8.08643 -0.00667554 8.23996 0.00083694H10.291C10.3159 0.0054415 10.3396 0.015407 10.3603 0.030044C10.381 0.044681 10.3982 0.0636401 10.4109 0.0856094C10.4235 0.107579 10.4313 0.132034 10.4335 0.157283C10.4358 0.182532 10.4325 0.207972 10.424 0.231843Z" fill="#B4B1FF"/>
<path d="M12.6013 8.90502V11.9011C12.6013 12.2724 12.4538 12.6285 12.1913 12.8911C11.9287 13.1536 11.5726 13.3011 11.2013 13.3011H10.9983C11.0886 13.0356 11.1267 12.7551 11.1103 12.4751L10.9913 10.5011L10.9493 9.80104L10.8373 7.81299L11.1593 7.91799L11.8593 8.163L12.0973 8.24C12.2416 8.28207 12.3685 8.36944 12.4592 8.4892C12.55 8.60896 12.5998 8.75475 12.6013 8.90502Z" fill="#4640DE"/>
<path d="M1.765 7.81299L1.65299 9.80104L1.61099 10.5011L1.49199 12.4751C1.47559 12.7551 1.51363 13.0356 1.60399 13.3011H1.40099C1.02968 13.3011 0.673571 13.1536 0.411013 12.8911C0.148455 12.6285 0.000951995 12.2724 0.000951995 11.9011V8.90502C-0.00701564 8.75237 0.0352013 8.6013 0.121155 8.4749C0.207109 8.3485 0.332074 8.25371 0.476964 8.205L0.70097 8.163L1.40099 7.91799L1.765 7.81299Z" fill="#4640DE"/>
<path d="M9.92032 4.07488C9.89594 3.67018 9.75493 3.28118 9.51431 2.95485C9.31877 2.68956 9.06352 2.47401 8.76923 2.32565C8.47493 2.17728 8.14985 2.10027 7.82027 2.10083H4.78219C4.45262 2.10027 4.12753 2.17728 3.83324 2.32565C3.53894 2.47401 3.2837 2.68956 3.08815 2.95485C2.84753 3.28118 2.70652 3.67018 2.68214 4.07488L2.62614 4.99191C2.62414 5.0213 2.62959 5.05072 2.64199 5.07745C2.65438 5.10417 2.67333 5.12734 2.69707 5.14479C2.7208 5.16224 2.74856 5.17342 2.77777 5.17729C2.80697 5.18116 2.83668 5.17759 2.86414 5.16691C3.28776 4.9904 3.74226 4.89998 4.20118 4.9009H8.40129C8.8602 4.89998 9.31471 4.9904 9.73832 5.16691C9.76578 5.17759 9.79549 5.18116 9.8247 5.17729C9.8539 5.17342 9.88166 5.16224 9.9054 5.14479C9.92913 5.12734 9.94808 5.10417 9.96048 5.07745C9.97288 5.05072 9.97833 5.0213 9.97633 4.99191L9.92032 4.07488Z" fill="#4640DE"/>
<path d="M10.0605 6.49702C10.0538 6.3711 10.0131 6.24933 9.94291 6.1446C9.87267 6.03987 9.77545 5.95605 9.66151 5.902C9.27183 5.70177 8.83959 5.59851 8.40148 5.601H4.20137C3.76124 5.60036 3.32716 5.70348 2.93434 5.902C2.82172 5.95701 2.72592 6.04124 2.65697 6.1459C2.58801 6.25057 2.54842 6.37183 2.54233 6.49702L2.18532 12.5172C2.17385 12.708 2.20158 12.8991 2.26678 13.0788C2.33199 13.2585 2.43329 13.4229 2.56446 13.5619C2.69563 13.7009 2.85387 13.8117 3.02945 13.8872C3.20503 13.9628 3.39422 14.0016 3.58536 14.0012H9.0175C9.20864 14.0016 9.39783 13.9628 9.57341 13.8872C9.74899 13.8117 9.90723 13.7009 10.0384 13.5619C10.1696 13.4229 10.2709 13.2585 10.3361 13.0788C10.4013 12.8991 10.429 12.708 10.4175 12.5172L10.0605 6.49702ZM6.65144 10.1511H5.95142C5.85859 10.1511 5.76957 10.1142 5.70393 10.0486C5.63829 9.98296 5.60141 9.89393 5.60141 9.8011C5.60141 9.70828 5.63829 9.61925 5.70393 9.55361C5.76957 9.48797 5.85859 9.4511 5.95142 9.4511H6.65144C6.74427 9.4511 6.83329 9.48797 6.89893 9.55361C6.96457 9.61925 7.00145 9.70828 7.00145 9.8011C7.00145 9.89393 6.96457 9.98296 6.89893 10.0486C6.83329 10.1142 6.74427 10.1511 6.65144 10.1511Z" fill="#B4B1FF"/>
</svg>
