<svg width="11" height="14" viewBox="0 0 11 14" fill="none" xmlns="http://www.w3.org/2000/svg">
<path d="M3.64343 6.79062V13.0844C3.64343 13.1283 3.62598 13.1704 3.59492 13.2015C3.56386 13.2326 3.52173 13.25 3.47781 13.25H0.993433C0.817727 13.25 0.649217 13.1802 0.524974 13.056C0.400732 12.9317 0.330933 12.7632 0.330933 12.5875V6.79062C0.330933 6.7467 0.348382 6.70457 0.379443 6.67351C0.410504 6.64245 0.452631 6.625 0.496558 6.625H3.47781C3.52173 6.625 3.56386 6.64245 3.59492 6.67351C3.62598 6.70457 3.64343 6.7467 3.64343 6.79062Z" fill="#B4B1FF"/>
<path d="M10.2684 6.79063V12.5875C10.2684 12.7632 10.1986 12.9317 10.0744 13.056C9.95015 13.1802 9.78164 13.25 9.60593 13.25H7.12156C7.07763 13.25 7.0355 13.2326 7.00444 13.2015C6.97338 13.1704 6.95593 13.1283 6.95593 13.0844V6.79063C6.95593 6.7467 6.97338 6.70457 7.00444 6.67351C7.0355 6.64245 7.07763 6.625 7.12156 6.625H10.1028C10.1467 6.625 10.1889 6.64245 10.2199 6.67351C10.251 6.70457 10.2684 6.7467 10.2684 6.79063Z" fill="#B4B1FF"/>
<path d="M10.5997 3.31252V5.7969C10.5997 5.84083 10.5822 5.88295 10.5512 5.91401C10.5201 5.94508 10.478 5.96252 10.4341 5.96252H7.12156C7.07763 5.96252 7.0355 5.94508 7.00444 5.91401C6.97338 5.88295 6.95593 5.84083 6.95593 5.7969V2.81565C6.95593 2.77172 6.97338 2.7296 7.00444 2.69853C7.0355 2.66747 7.07763 2.65002 7.12156 2.65002H9.93718C10.1129 2.65002 10.2814 2.71982 10.4056 2.84407C10.5299 2.96831 10.5997 3.13682 10.5997 3.31252Z" fill="#B4B1FF"/>
<path d="M3.64375 2.81565V5.7969C3.64375 5.84083 3.6263 5.88295 3.59524 5.91401C3.56418 5.94508 3.52205 5.96252 3.47812 5.96252H0.165625C0.121699 5.96252 0.079571 5.94508 0.0485103 5.91401C0.0174496 5.88295 0 5.84083 0 5.7969V3.31252C0 3.13682 0.069799 2.96831 0.194042 2.84407C0.318285 2.71982 0.486794 2.65002 0.6625 2.65002H3.47812C3.52205 2.65002 3.56418 2.66747 3.59524 2.69853C3.6263 2.7296 3.64375 2.77172 3.64375 2.81565Z" fill="#B4B1FF"/>
<path d="M6.12797 2.65002H4.47172C4.38024 2.65002 4.30609 2.72418 4.30609 2.81565V13.0844C4.30609 13.1759 4.38024 13.25 4.47172 13.25H6.12797C6.21944 13.25 6.29359 13.1759 6.29359 13.0844V2.81565C6.29359 2.72418 6.21944 2.65002 6.12797 2.65002Z" fill="#4640DE"/>
<path d="M1.72284 0H3.64409C3.9955 0 4.33252 0.139598 4.581 0.388083C4.82949 0.636569 4.96909 0.973588 4.96909 1.325V1.82187C4.96909 1.8658 4.95164 1.90793 4.92058 1.93899C4.88952 1.97005 4.84739 1.9875 4.80346 1.9875H3.70371C3.66481 1.98711 3.62728 1.97304 3.59771 1.94775L1.61021 0.284875C1.58658 0.2621 1.57024 0.232815 1.56328 0.200738C1.55632 0.168662 1.55904 0.13524 1.57111 0.104716C1.58318 0.0741911 1.60404 0.0479406 1.63106 0.0292965C1.65807 0.0106524 1.69002 0.000455398 1.72284 0Z" fill="#4640DE"/>
<path d="M8.87766 0H6.95641C6.605 0 6.26798 0.139598 6.01949 0.388083C5.77101 0.636569 5.63141 0.973588 5.63141 1.325V1.82187C5.63141 1.8658 5.64886 1.90793 5.67992 1.93899C5.71098 1.97005 5.75311 1.9875 5.79703 1.9875H6.89678C6.93569 1.98711 6.97322 1.97304 7.00278 1.94775L8.99028 0.284875C9.01392 0.2621 9.03026 0.232815 9.03722 0.200738C9.04418 0.168662 9.04145 0.13524 9.02939 0.104716C9.01732 0.0741911 8.99645 0.0479406 8.96944 0.0292965C8.94242 0.0106524 8.91048 0.000455398 8.87766 0Z" fill="#4640DE"/>
</svg>
