<svg width="15" height="12" viewBox="0 0 15 12" fill="none" xmlns="http://www.w3.org/2000/svg">
<path d="M2.92189 0.974964C2.19407 2.53494 1.98386 4.2867 2.32194 5.97458C2.31792 6.0523 2.31792 6.13017 2.32194 6.20789L2.22194 7.29948C2.21767 7.35547 2.19183 7.40762 2.14986 7.44492C2.10788 7.48223 2.05307 7.50178 1.99696 7.49946C1.95394 7.50062 1.91161 7.48842 1.8758 7.46455C1.83999 7.44068 1.81245 7.4063 1.79698 7.36614L0.147103 3.57476C-0.0151795 3.1994 -0.0441588 2.77981 0.0649795 2.3857C0.174118 1.99159 0.414804 1.64668 0.747057 1.40826L2.2886 0.300016C2.43931 0.192117 2.61989 0.133865 2.80523 0.133362C2.9921 0.122987 3.17701 0.17582 3.33019 0.28335V0.333347C3.16216 0.525143 3.02447 0.741519 2.92189 0.974964Z" fill="#4640DE"/>
<path d="M14.8456 3.57471L13.229 7.32442C13.2135 7.36458 13.186 7.39896 13.1502 7.42283C13.1144 7.4467 13.0721 7.4589 13.029 7.45774C12.9729 7.46006 12.9181 7.44051 12.8761 7.4032C12.8342 7.3659 12.8083 7.31375 12.8041 7.25776L12.7041 6.16617C12.7081 6.08845 12.7081 6.01058 12.7041 5.93286C13.0421 4.24497 12.8319 2.49322 12.1041 0.933243C11.9877 0.712323 11.8388 0.510093 11.6625 0.33329V0.283294C11.8065 0.18274 11.9785 0.130246 12.1541 0.133305C12.3394 0.133808 12.52 0.19206 12.6707 0.299959L14.2456 1.40821C14.5779 1.64662 14.8185 1.99153 14.9277 2.38564C15.0368 2.77975 15.0078 3.19934 14.8456 3.57471Z" fill="#4640DE"/>
<path d="M11.9466 3.5664C11.8574 2.79004 11.6436 2.03315 11.3133 1.3249C11.2177 1.13123 11.0778 0.962805 10.905 0.833274C10.7871 0.729519 10.6517 0.64768 10.505 0.591626L9.99673 0.399974C8.34438 -0.133325 6.56614 -0.133325 4.91379 0.399974L4.47216 0.558295C4.32887 0.62613 4.19902 0.719285 4.08885 0.833274C3.91291 0.969867 3.77279 1.14716 3.68055 1.3499C3.35029 2.05815 3.13645 2.81504 3.04726 3.59139C3.01387 3.9851 3.01387 4.38093 3.04726 4.77464C3.04653 5.14716 3.08564 5.51868 3.16392 5.88288C3.2312 6.21697 3.32311 6.54562 3.4389 6.86614L3.74721 7.69941C3.86388 8.03834 4.02951 8.35837 4.23884 8.64934C4.46578 8.93915 4.6406 9.26622 4.75547 9.61593L4.84713 9.89091C5.01295 10.3876 5.33059 10.8197 5.7552 11.1262C6.1798 11.4327 6.68994 11.5981 7.21361 11.5991H7.78023C8.3039 11.5981 8.81404 11.4327 9.23865 11.1262C9.66326 10.8197 9.98089 10.3876 10.1467 9.89091L10.2384 9.61593C10.3533 9.26622 10.5281 8.93915 10.755 8.64934C10.9643 8.35837 11.13 8.03834 11.2466 7.69941L11.5549 6.86614C11.6707 6.54562 11.7626 6.21697 11.8299 5.88288C11.9212 5.51176 11.9715 5.13174 11.9799 4.74964C12.0022 4.35499 11.9911 3.95916 11.9466 3.5664ZM6.0387 5.58291H5.41375C5.29015 5.58291 5.16932 5.54626 5.06655 5.47758C4.96377 5.40891 4.88367 5.31131 4.83637 5.19711C4.78907 5.08292 4.77669 4.95726 4.80081 4.83603C4.82492 4.71481 4.88444 4.60345 4.97184 4.51605C5.05924 4.42865 5.1706 4.36913 5.29183 4.34501C5.41306 4.3209 5.53871 4.33327 5.65291 4.38058C5.7671 4.42788 5.86471 4.50798 5.93338 4.61075C6.00205 4.71352 6.0387 4.83435 6.0387 4.95796V5.58291ZM8.53851 9.64093L8.09688 10.0826C8.01941 10.1607 7.92725 10.2227 7.82571 10.265C7.72417 10.3073 7.61526 10.329 7.50526 10.329C7.39525 10.329 7.28634 10.3073 7.1848 10.265C7.08326 10.2227 6.9911 10.1607 6.91363 10.0826L6.472 9.64093C6.45207 9.62223 6.43619 9.59964 6.42533 9.57456C6.41447 9.54948 6.40887 9.52244 6.40887 9.49511C6.40887 9.46778 6.41447 9.44074 6.42533 9.41566C6.43619 9.39058 6.45207 9.36799 6.472 9.34929C6.60692 9.21223 6.76776 9.10338 6.94515 9.02909C7.12254 8.95479 7.31293 8.91653 7.50526 8.91653C7.69758 8.91653 7.88797 8.95479 8.06536 9.02909C8.24275 9.10338 8.40359 9.21223 8.53851 9.34929C8.55896 9.36687 8.57548 9.38859 8.58696 9.413C8.59845 9.43741 8.60466 9.46397 8.60517 9.49094C8.60374 9.51977 8.59634 9.54799 8.58343 9.57381C8.57052 9.59963 8.55239 9.62249 8.53018 9.64093H8.53851ZM9.5801 5.58291H8.95514V4.95796C8.95514 4.83435 8.9918 4.71352 9.06047 4.61075C9.12914 4.50798 9.22674 4.42788 9.34094 4.38058C9.45513 4.33327 9.58079 4.3209 9.70202 4.34501C9.82325 4.36913 9.9346 4.42865 10.022 4.51605C10.1094 4.60345 10.1689 4.71481 10.193 4.83603C10.2172 4.95726 10.2048 5.08292 10.1575 5.19711C10.1102 5.31131 10.0301 5.40891 9.9273 5.47758C9.82453 5.54626 9.7037 5.58291 9.5801 5.58291Z" fill="#B4B1FF"/>
</svg>
