<svg width="12" height="12" viewBox="0 0 12 12" fill="none" xmlns="http://www.w3.org/2000/svg">
<path d="M1.83596 1.41614C1.83564 1.41614 1.83527 1.41614 1.83495 1.41614C1.72145 1.41614 1.61471 1.46038 1.5341 1.54078C1.4526 1.62208 1.40771 1.73032 1.40771 1.84555V8.28456C1.40771 8.52069 1.60056 8.71325 1.83766 8.71386C2.83717 8.71624 4.51177 8.92457 5.667 10.1335V3.39489C5.667 3.31485 5.64656 3.23966 5.60797 3.17744C4.65981 1.65048 2.83774 1.41848 1.83596 1.41614Z" fill="#B4B1FF"/>
<path d="M10.5926 8.2846V1.84555C10.5926 1.73032 10.5477 1.62208 10.4662 1.54078C10.3856 1.46038 10.2788 1.41614 10.1654 1.41614H10.1644C9.16263 1.41852 7.34057 1.65052 6.39236 3.17748C6.35378 3.2397 6.33337 3.31489 6.33337 3.39493V10.1335C7.48861 8.92457 9.1632 8.71624 10.1627 8.71386C10.3998 8.71325 10.5926 8.52069 10.5926 8.2846Z" fill="#B4B1FF"/>
<path d="M11.5705 2.90112H11.2592V8.28462C11.2592 8.88749 10.768 9.37908 10.1642 9.38058C9.3164 9.3826 7.91849 9.54838 6.92847 10.4854C8.64072 10.0662 10.4457 10.3387 11.4744 10.5731C11.6029 10.6024 11.7356 10.5721 11.8385 10.4901C11.9411 10.4083 11.9999 10.286 11.9999 10.1547V3.33046C11.9999 3.09373 11.8073 2.90112 11.5705 2.90112Z" fill="#4640DE"/>
<path d="M0.740689 8.28462V2.90112H0.429335C0.192647 2.90112 0 3.09373 0 3.33046V10.1546C0 10.2859 0.0588285 10.4082 0.161374 10.49C0.264203 10.572 0.396809 10.6023 0.525456 10.573C1.55415 10.3385 3.3592 10.066 5.07137 10.4853C4.08139 9.5483 2.68348 9.38256 1.83568 9.38054C1.23192 9.37909 0.740689 8.88749 0.740689 8.28462Z" fill="#4640DE"/>
</svg>
