<svg width="12" height="14" viewBox="0 0 12 14" fill="none" xmlns="http://www.w3.org/2000/svg">
<path d="M11.8453 9.71888L11.2623 8.15538C11.2146 8.01451 11.1899 7.86685 11.1894 7.71813V1.325C11.1894 0.973588 11.0498 0.636569 10.8013 0.388084C10.5528 0.139598 10.2158 0 9.86441 0H2.03366C1.68225 0 1.34523 0.139598 1.09675 0.388084C0.848259 0.636569 0.708662 0.973588 0.708662 1.325V7.71813C0.708125 7.86685 0.683515 8.01451 0.635787 8.15538L0.0792864 9.71888C0.0709814 9.74343 0.0685567 9.7696 0.072207 9.79526C0.0758572 9.82093 0.0854807 9.84538 0.100303 9.86664C0.115126 9.88791 0.134733 9.9054 0.157548 9.91771C0.180363 9.93001 0.205748 9.93679 0.231661 9.9375H11.6929C11.7188 9.93679 11.7442 9.93001 11.767 9.91771C11.7898 9.9054 11.8094 9.88791 11.8243 9.86664C11.8391 9.84538 11.8487 9.82093 11.8524 9.79526C11.856 9.7696 11.8536 9.74343 11.8453 9.71888ZM10.7455 9.275H1.17904C1.15177 9.27574 1.12473 9.26974 1.10034 9.25752C1.07595 9.2453 1.05496 9.22724 1.03922 9.20495C1.02349 9.18266 1.01351 9.15683 1.01016 9.12976C1.00681 9.10268 1.0102 9.0752 1.02004 9.04975C1.16382 8.72311 1.3994 8.44529 1.69814 8.25005C1.99688 8.05481 2.34591 7.95057 2.70279 7.95H3.97479C3.9737 7.52975 4.10584 7.11997 4.35224 6.77954C4.59864 6.4391 4.94661 6.18553 5.34616 6.05525C5.36924 6.04641 5.39004 6.03252 5.40705 6.0146C5.42406 5.99668 5.43684 5.97518 5.44447 5.95168C5.45209 5.92818 5.45436 5.90326 5.4511 5.87877C5.44785 5.85428 5.43916 5.83082 5.42566 5.81013L5.04804 5.247C5.02325 5.21724 5.00967 5.17973 5.00967 5.141C5.00967 5.10227 5.02325 5.06476 5.04804 5.035L5.39916 4.68388C5.4165 4.66691 5.43736 4.65397 5.46026 4.64596C5.48315 4.63794 5.50753 4.63506 5.53166 4.6375H6.37966C6.40162 4.63694 6.42347 4.64075 6.44395 4.64871C6.46442 4.65667 6.4831 4.66862 6.49891 4.68388L6.85666 5.035C6.88145 5.06476 6.89502 5.10227 6.89502 5.141C6.89502 5.17973 6.88145 5.21724 6.85666 5.247L6.47904 5.81013C6.46554 5.83082 6.45685 5.85428 6.4536 5.87877C6.45034 5.90326 6.45261 5.92818 6.46023 5.95168C6.46785 5.97518 6.48064 5.99668 6.49765 6.0146C6.51466 6.03252 6.53546 6.04641 6.55854 6.05525C6.96179 6.18207 7.31411 6.43416 7.5643 6.7749C7.8145 7.11564 7.94953 7.52727 7.94979 7.95H9.22179C9.57867 7.95057 9.9277 8.05481 10.2264 8.25005C10.5252 8.44529 10.7608 8.72311 10.9045 9.04975C10.9144 9.0752 10.9178 9.10268 10.9144 9.12976C10.9111 9.15683 10.9011 9.18266 10.8854 9.20495C10.8696 9.22724 10.8486 9.2453 10.8242 9.25752C10.7998 9.26974 10.7728 9.27574 10.7455 9.275Z" fill="#B4B1FF"/>
<path d="M7.28745 7.95H4.63745C4.63745 7.59859 4.77705 7.26157 5.02553 7.01308C5.27402 6.7646 5.61104 6.625 5.96245 6.625C6.31386 6.625 6.65088 6.7646 6.89937 7.01308C7.14785 7.26157 7.28745 7.59859 7.28745 7.95Z" fill="#4640DE"/>
<path d="M11.925 10.7656V11.925C11.925 12.2764 11.7854 12.6134 11.5369 12.8619C11.2884 13.1104 10.9514 13.25 10.6 13.25H1.325C0.973588 13.25 0.636569 13.1104 0.388083 12.8619C0.139598 12.6134 0 12.2764 0 11.925V10.7656C0 10.7217 0.0174498 10.6795 0.0485105 10.6485C0.0795712 10.6174 0.121699 10.6 0.165625 10.6H4.30625C4.3941 10.6 4.47836 10.6349 4.54048 10.697C4.6026 10.7591 4.6375 10.8434 4.6375 10.9312C4.6375 11.0191 4.6724 11.1033 4.73452 11.1655C4.79664 11.2276 4.8809 11.2625 4.96875 11.2625H6.95625C7.0441 11.2625 7.12836 11.2276 7.19048 11.1655C7.2526 11.1033 7.2875 11.0191 7.2875 10.9312C7.2875 10.8434 7.3224 10.7591 7.38452 10.697C7.44664 10.6349 7.5309 10.6 7.61875 10.6H11.7594C11.8033 10.6 11.8454 10.6174 11.8765 10.6485C11.9076 10.6795 11.925 10.7217 11.925 10.7656Z" fill="#4640DE"/>
</svg>
